HIERARCHY
ROOT Hips
{
	OFFSET	0.000000	0.000000	0.000000
	CHANNELS	6	Xposition	Yposition	Zposition	Zrotation	Xrotation	Yrotation
	JOINT LeftHip
	{
		OFFSET	15.500000	-8.200000	0.000000
		CHANNELS	3	Zrotation	Xrotation	Yrotation
		JOINT LeftKnee
		{
			OFFSET	0.000000	-41.000000	0.000000
			CHANNELS	3	Zrotation	Xrotation	Yrotation
			JOINT LeftAnkle
			{
				OFFSET	0.000000	-41.500000	0.000000
				CHANNELS	3	Zrotation	Xrotation	Yrotation
				End Site
				{
					OFFSET	0.000000	0.000000	22.875000
				}
			}
		}
	}
	JOINT RightHip
	{
		OFFSET	-15.500000	-8.200000	0.000000
		CHANNELS	3	Zrotation	Xrotation	Yrotation
		JOINT RightKnee
		{
			OFFSET	0.000000	-41.000000	0.000000
			CHANNELS	3	Zrotation	Xrotation	Yrotation
			JOINT RightAnkle
			{
				OFFSET	0.000000	-41.500000	0.000000
				CHANNELS	3	Zrotation	Xrotation	Yrotation
				End Site
				{
					OFFSET	0.000000	0.000000	22.875000
				}
			}
		}
	}
	JOINT Chest
	{
		OFFSET	0.000000	16.666667	0.000000
		CHANNELS	3	Zrotation	Xrotation	Yrotation
		JOINT LeftCollar
		{
			OFFSET	4.625000	33.333333	1.541667
			CHANNELS	3	Zrotation	Xrotation	Yrotation
			JOINT LeftShoulder
			{
				OFFSET	13.875000	0.000000	0.000000
				CHANNELS	3	Zrotation	Xrotation	Yrotation
				JOINT LeftElbow
				{
					OFFSET	0.000000	-28.000000	0.000000
					CHANNELS	3	Zrotation	Xrotation	Yrotation
					JOINT LeftWrist
					{
						OFFSET	0.000000	-25.000000	0.000000
						CHANNELS	3	Zrotation	Xrotation	Yrotation
						End Site
						{
							OFFSET	0.000000	-7.500000	0.000000
						}
					}
				}
			}
		}
		JOINT RightCollar
		{
			OFFSET	-4.625000	33.333333	1.541667
			CHANNELS	3	Zrotation	Xrotation	Yrotation
			JOINT RightShoulder
			{
				OFFSET	-13.875000	0.000000	0.000000
				CHANNELS	3	Zrotation	Xrotation	Yrotation
				JOINT RightElbow
				{
					OFFSET	0.000000	-28.000000	0.000000
					CHANNELS	3	Zrotation	Xrotation	Yrotation
					JOINT RightWrist
					{
						OFFSET	0.000000	-25.000000	0.000000
						CHANNELS	3	Zrotation	Xrotation	Yrotation
						End Site
						{
							OFFSET	0.000000	-7.500000	0.000000
						}
					}
				}
			}
		}
		JOINT Neck
		{
			OFFSET	0.000000	33.333333	0.000000
			CHANNELS	3	Zrotation	Xrotation	Yrotation
			JOINT Head
			{
				OFFSET	0.000000	12.000000	0.000000
				CHANNELS	3	Zrotation	Xrotation	Yrotation
				End Site
				{
					OFFSET	0.000000	15.000000	0.000000
				}
			}
		}
	}
}
MOTION
Frames:	34
Frame Time:	0.012000
46.12	100.04	22.65	-2.61	-1.70	93.03	6.39	-29.33	0.01	0.00	14.92	0.00	-9.46	38.03	8.15	0.34	-17.30	16.01	0.00	33.63	0.00	-1.46	6.60	1.11	0.23	-2.77	2.55	0.00	0.00	0.00	-1.90	-2.96	5.88	4.83	-2.24	-3.44	-0.29	0.36	0.00	0.00	0.00	0.00	0.19	-12.67	-9.89	8.21	-1.28	5.53	-0.16	-0.89	0.00	0.00	0.00	0.00	-2.89	7.53	12.66
46.44	99.86	22.83	-2.65	-1.79	92.84	6.30	-28.75	-0.26	0.00	11.10	0.00	-9.57	38.95	7.91	0.61	-17.55	16.08	0.00	34.73	0.00	-1.36	5.63	1.15	0.26	-2.90	2.56	0.00	0.00	0.00	-1.77	-3.07	5.95	4.73	-2.26	-3.47	-0.29	0.35	0.00	0.00	0.00	0.00	0.29	-12.87	-9.77	8.12	-1.17	5.70	-0.19	-0.87	0.00	0.00	0.00	0.00	-2.86	7.60	12.85
46.93	99.57	22.87	-2.74	-1.95	92.47	6.21	-27.50	-0.62	0.00	6.07	0.00	-9.74	40.51	7.88	0.86	-17.75	16.14	0.00	35.69	0.00	-1.38	4.63	1.17	0.29	-3.03	2.56	0.00	0.00	0.00	-1.66	-3.16	6.01	4.64	-2.23	-3.48	-0.29	0.35	0.00	0.00	0.00	0.00	0.36	-13.05	-9.64	8.03	-1.05	5.88	-0.22	-0.86	0.00	0.00	0.00	0.00	-2.82	7.67	13.62
47.51	99.28	22.80	-2.74	-1.95	92.47	6.13	-25.60	-1.02	0.00	0.00	0.00	-10.08	42.71	8.21	1.11	-17.83	16.21	0.00	36.52	0.00	-1.25	3.84	1.18	0.30	-3.17	2.57	0.00	0.00	0.00	-1.61	-3.22	6.10	4.65	-2.35	-3.39	-0.29	0.34	0.00	0.00	0.00	0.00	0.39	-13.22	-9.51	7.99	-0.93	6.10	-0.25	-0.85	0.00	0.00	0.00	0.00	-2.82	7.80	13.61
47.94	99.00	22.99	-2.77	-2.02	92.22	6.00	-26.65	-1.54	0.00	0.00	0.00	-10.17	41.86	8.06	1.37	-17.84	16.32	0.00	37.27	0.00	-1.15	3.08	1.20	0.35	-3.30	2.55	0.00	0.00	0.00	-1.47	-3.35	6.16	4.53	-2.35	-3.35	-0.28	0.33	0.00	0.00	0.00	0.00	0.51	-13.36	-9.37	7.81	-0.83	6.28	-0.26	-0.84	0.00	0.00	0.00	0.00	-2.82	7.89	13.89
48.54	98.72	23.11	-2.84	-2.14	91.72	5.85	-27.58	-2.14	0.00	0.00	0.00	-10.55	40.96	8.21	1.65	-17.79	16.46	0.00	37.93	0.00	-1.06	2.37	1.25	0.37	-3.42	2.55	0.00	0.00	0.00	-1.40	-3.41	6.20	4.51	-2.36	-3.27	-0.29	0.33	0.00	0.00	0.00	0.00	0.57	-13.42	-9.24	7.72	-0.77	6.50	-0.27	-0.83	0.00	0.00	0.00	0.00	-2.87	7.98	14.67
49.32	98.45	23.15	-2.87	-2.25	91.32	5.85	-27.58	-2.14	0.00	0.00	0.00	-10.55	40.96	8.21	1.92	-17.67	16.66	0.00	38.52	0.00	-1.00	1.70	1.32	0.37	-3.42	2.55	0.00	0.00	0.00	-1.40	-3.41	6.20	4.51	-2.36	-3.27	-0.29	0.33	0.00	0.00	0.00	0.00	0.57	-13.42	-9.24	7.72	-0.77	6.50	-0.27	-0.83	0.00	0.00	0.00	0.00	-2.80	7.92	15.06
50.05	98.20	23.20	-2.89	-2.30	91.01	5.71	-28.37	-2.89	0.00	0.00	0.00	-11.50	39.87	8.56	2.18	-17.42	16.92	0.00	38.82	0.00	-0.98	1.13	1.39	0.40	-3.55	2.56	0.00	0.00	0.00	-1.35	-3.50	6.16	4.56	-2.39	-3.00	-0.33	0.34	0.00	0.00	0.00	0.00	0.66	-13.48	-9.11	7.63	-0.71	6.76	-0.31	-0.82	0.00	0.00	0.00	0.00	-2.80	8.01	15.36
50.68	97.97	23.35	-2.95	-2.39	90.39	5.58	-29.00	-3.72	0.00	0.00	0.00	-12.63	38.73	8.75	2.48	-17.27	17.25	0.00	39.36	0.00	-0.97	0.48	1.43	0.42	-3.67	2.58	0.00	0.00	0.00	-1.36	-3.55	6.10	4.66	-2.44	-2.75	-0.37	0.35	0.00	0.00	0.00	0.00	0.71	-13.50	-9.01	7.57	-0.66	7.05	-0.35	-0.81	0.00	0.00	0.00	0.00	-2.89	8.12	16.34
51.48	97.73	23.45	-2.97	-2.45	89.89	5.48	-29.45	-4.61	0.00	0.00	0.00	-13.74	37.67	8.65	2.77	-17.09	17.63	0.00	39.85	0.00	-1.00	-0.09	1.36	0.46	-3.79	2.61	0.00	0.00	0.00	-1.32	-3.65	5.97	4.73	-2.49	-2.48	-0.39	0.35	0.00	0.00	0.00	0.00	0.78	-13.52	-8.94	7.49	-0.57	7.29	-0.38	-0.79	0.00	0.00	0.00	0.00	-2.90	8.19	16.83
52.22	97.52	23.58	-2.99	-2.50	89.33	5.39	-29.75	-5.61	0.00	0.00	0.00	-14.53	36.77	8.16	3.06	-16.90	18.05	0.00	40.29	0.00	-1.01	-0.63	1.30	0.49	-3.91	2.64	0.00	0.00	0.00	-1.26	-3.74	5.78	4.78	-2.61	-2.31	-0.39	0.35	0.00	0.00	0.00	0.00	0.86	-13.52	-8.89	7.40	-0.52	7.51	-0.40	-0.77	0.00	0.00	0.00	0.00	-2.91	8.27	17.37
52.93	97.31	23.74	-2.95	-2.53	88.66	5.33	-29.89	-6.67	0.00	0.00	0.00	-15.18	36.27	8.05	3.33	-16.67	18.45	0.00	40.69	0.00	-0.98	-1.14	1.19	0.51	-4.05	2.67	0.00	0.00	0.00	-1.22	-3.85	5.55	4.83	-2.71	-2.13	-0.37	0.35	0.00	0.00	0.00	0.00	0.92	-13.52	-8.86	7.31	-0.48	7.71	-0.41	-0.75	0.00	0.00	0.00	0.00	-3.00	8.45	18.35
53.60	97.10	23.94	-2.87	-2.56	87.93	5.28	-29.87	-7.84	0.00	0.00	0.00	-15.62	36.22	8.50	3.57	-16.44	18.83	0.00	41.06	0.00	-0.90	-1.43	1.15	0.53	-4.19	2.69	0.00	0.00	0.00	-1.18	-4.00	5.29	4.88	-2.80	-1.94	-0.35	0.35	0.00	0.00	0.00	0.00	1.01	-13.51	-8.85	7.20	-0.48	7.91	-0.42	-0.74	0.00	0.00	0.00	0.00	-3.05	8.64	19.08
54.24	96.91	24.15	-2.81	-2.56	87.54	5.25	-29.65	-9.06	0.00	0.00	0.00	-15.81	36.23	9.02	3.79	-16.19	19.17	0.00	41.39	0.00	-0.75	-1.55	1.06	0.54	-4.36	2.70	0.00	0.00	0.00	-1.15	-4.17	5.04	4.92	-2.86	-1.75	-0.32	0.34	0.00	0.00	0.00	0.00	1.07	-13.51	-8.86	7.09	-0.44	8.08	-0.42	-0.72	0.00	0.00	0.00	0.00	-3.08	8.85	19.49
54.85	96.72	24.31	-2.68	-2.56	86.75	5.25	-29.26	-10.33	0.00	0.00	0.00	-15.90	36.29	9.26	4.00	-15.91	19.52	0.00	41.69	0.00	-0.54	-1.67	0.96	0.54	-4.54	2.70	0.00	0.00	0.00	-1.16	-4.33	4.83	5.00	-2.91	-1.55	-0.29	0.33	0.00	0.00	0.00	0.00	1.11	-13.51	-8.88	6.99	-0.40	8.24	-0.42	-0.71	0.00	0.00	0.00	0.00	-3.21	9.23	20.67
55.47	96.53	24.59	-2.56	-2.54	86.01	5.27	-28.73	-11.53	0.00	0.00	0.00	-16.17	36.20	9.11	4.19	-15.61	19.80	0.00	41.96	0.00	-0.26	-1.71	0.88	0.51	-4.72	2.71	0.00	0.00	0.00	-1.19	-4.48	4.61	5.11	-2.96	-1.40	-0.26	0.33	0.00	0.00	0.00	0.00	1.16	-13.52	-8.88	6.91	-0.41	8.42	-0.44	-0.70	0.00	0.00	0.00	0.00	-3.26	9.49	21.42
56.16	96.35	24.89	-2.37	-2.51	84.86	5.32	-28.12	-12.66	0.00	0.00	0.00	-16.52	35.95	8.91	4.36	-15.30	20.07	0.00	42.23	0.00	-0.03	-1.71	0.93	0.48	-4.90	2.71	0.00	0.00	0.00	-1.26	-4.64	4.45	5.26	-2.95	-1.31	-0.23	0.33	0.00	0.00	0.00	0.00	1.15	-13.52	-8.90	6.87	-0.33	8.67	-0.45	-0.69	0.00	0.00	0.00	0.00	-3.36	9.79	22.61
56.83	96.17	25.30	-2.18	-2.45	83.63	5.40	-27.43	-13.69	0.00	0.00	0.00	-16.83	35.61	8.72	4.50	-14.98	20.30	0.00	42.48	0.00	0.27	-1.69	0.88	0.42	-5.10	2.72	0.00	0.00	0.00	-1.39	-4.75	4.34	5.47	-3.00	-1.20	-0.20	0.34	0.00	0.00	0.00	0.00	1.09	-13.53	-8.90	6.90	-0.22	8.97	-0.49	-0.67	0.00	0.00	0.00	0.00	-3.62	10.35	23.98
57.52	96.00	25.81	-2.00	-2.36	82.37	5.50	-26.66	-14.53	0.00	0.00	0.00	-17.09	35.34	8.53	4.61	-14.68	20.52	0.00	42.72	0.00	0.60	-1.61	0.82	0.35	-5.30	2.74	0.00	0.00	0.00	-1.53	-4.83	4.26	5.71	-3.06	-1.14	-0.16	0.35	0.00	0.00	0.00	0.00	0.99	-13.52	-8.85	6.96	-0.10	9.30	-0.54	-0.63	0.00	0.00	0.00	0.00	-3.75	10.64	25.27
58.22	95.83	26.37	-1.88	-2.23	81.12	5.66	-25.83	-15.31	0.00	0.00	0.00	-17.13	35.73	8.68	4.67	-14.35	20.69	0.00	42.91	0.00	0.94	-1.49	0.66	0.29	-5.48	2.78	0.00	0.00	0.00	-1.65	-4.78	4.19	5.92	-3.27	-1.13	-0.10	0.34	0.00	0.00	0.00	0.00	0.92	-13.51	-8.78	7.05	0.05	9.62	-0.61	-0.60	0.00	0.00	0.00	0.00	-3.95	10.85	26.52
59.01	95.67	27.04	-1.82	-2.07	79.92	5.84	-24.95	-16.06	0.00	0.00	0.00	-16.95	36.57	9.02	4.72	-14.01	20.87	0.00	43.09	0.00	1.21	-1.29	0.63	0.24	-5.65	2.85	0.00	0.00	0.00	-1.81	-4.75	4.12	6.25	-3.38	-1.03	-0.04	0.36	0.00	0.00	0.00	0.00	0.84	-13.46	-8.69	7.19	0.27	9.92	-0.70	-0.56	0.00	0.00	0.00	0.00	-4.30	11.26	27.64
59.92	95.51	27.70	-1.79	-1.92	78.76	6.02	-24.04	-16.77	0.00	0.00	0.00	-16.45	37.56	9.56	4.75	-13.66	21.04	0.00	43.25	0.00	1.44	-1.05	0.63	0.21	-5.79	2.97	0.00	0.00	0.00	-1.97	-4.65	4.00	6.60	-3.54	-0.85	0.02	0.38	0.00	0.00	0.00	0.00	0.75	-13.43	-8.60	7.36	0.63	10.21	-0.80	-0.52	0.00	0.00	0.00	0.00	-4.68	11.62	28.69
60.86	95.36	28.34	-1.77	-1.79	77.65	6.20	-23.07	-17.35	0.00	0.00	0.00	-15.88	38.32	10.14	4.75	-13.31	21.20	0.00	43.41	0.00	1.66	-0.73	0.64	0.19	-5.88	3.10	0.00	0.00	0.00	-2.18	-4.55	3.81	7.06	-3.57	-0.53	0.06	0.41	0.00	0.00	0.00	0.00	0.66	-13.32	-8.50	7.56	0.87	10.42	-0.91	-0.48	0.00	0.00	0.00	0.00	-4.87	11.63	29.70
61.81	95.22	28.94	-1.76	-1.72	76.93	6.34	-22.07	-17.76	0.00	0.00	0.00	-15.42	38.75	10.78	4.73	-12.94	21.31	0.00	43.55	0.00	1.85	-0.32	0.67	0.18	-5.92	3.24	0.00	0.00	0.00	-2.36	-4.37	3.54	7.47	-3.69	-0.18	0.08	0.43	0.00	0.00	0.00	0.00	0.59	-13.12	-8.40	7.75	1.08	10.50	-0.98	-0.45	0.00	0.00	0.00	0.00	-5.20	12.13	30.01
62.72	95.11	29.32	-1.71	-1.64	76.22	6.44	-21.03	-18.04	0.00	0.00	0.00	-15.09	38.90	11.34	4.70	-12.59	21.39	0.00	43.68	0.00	1.98	0.16	0.70	0.16	-5.92	3.36	0.00	0.00	0.00	-2.58	-4.14	3.22	7.90	-3.80	0.24	0.08	0.43	0.00	0.00	0.00	0.00	0.50	-12.82	-8.31	7.95	1.17	10.45	-1.03	-0.45	0.00	0.00	0.00	0.00	-5.33	12.20	30.52
63.53	95.04	29.70	-1.61	-1.58	75.50	6.49	-20.00	-18.16	0.00	0.00	0.00	-14.95	38.78	11.57	4.60	-12.12	21.40	0.00	43.59	0.00	2.09	0.93	0.74	0.11	-5.85	3.45	0.00	0.00	0.00	-2.79	-3.90	2.88	8.29	-3.85	0.62	0.06	0.43	0.00	0.00	0.00	0.00	0.39	-12.47	-8.24	8.14	1.24	10.33	-1.06	-0.45	0.00	0.00	0.00	0.00	-5.49	12.32	31.03
64.33	95.00	30.08	-1.41	-1.48	74.42	6.48	-18.93	-18.21	0.00	0.00	0.00	-14.84	38.55	11.43	4.49	-11.65	21.37	0.00	43.49	0.00	2.24	1.83	0.78	0.06	-5.73	3.51	0.00	0.00	0.00	-3.02	-3.65	2.51	8.66	-3.89	1.03	0.03	0.41	0.00	0.00	0.00	0.00	0.24	-12.07	-8.19	8.34	1.30	10.19	-1.06	-0.47	0.00	0.00	0.00	0.00	-5.81	12.77	31.62
65.07	95.00	30.71	-1.18	-1.40	73.30	6.40	-17.84	-18.21	0.00	0.00	0.00	-14.69	38.17	10.81	4.37	-11.19	21.28	0.00	43.42	0.00	2.40	2.90	0.87	-0.02	-5.58	3.54	0.00	0.00	0.00	-3.25	-3.42	2.16	8.99	-3.91	1.39	-0.01	0.40	0.00	0.00	0.00	0.00	0.03	-11.61	-8.19	8.57	1.35	10.06	-1.04	-0.48	0.00	0.00	0.00	0.00	-6.01	12.69	32.74
65.79	95.74	31.39	-0.90	-1.32	72.14	6.27	-16.73	-18.14	0.00	0.00	0.00	-14.34	37.81	9.94	4.29	-10.73	21.17	0.00	43.39	0.00	2.59	4.04	0.92	-0.12	-5.39	3.55	0.00	0.00	0.00	-3.50	-3.25	1.84	9.33	-3.90	1.71	-0.06	0.39	0.00	0.00	0.00	0.00	-0.22	-11.16	-8.20	8.82	1.43	9.92	-1.01	-0.50	0.00	0.00	0.00	0.00	-6.22	12.76	33.72
66.42	95.89	31.77	-0.59	-1.22	70.95	6.07	-15.63	-17.97	0.00	0.00	0.00	-13.82	37.39	8.90	4.23	-10.31	21.01	0.00	43.42	0.00	2.80	5.29	0.99	-0.23	-5.18	3.53	0.00	0.00	0.00	-3.71	-3.10	1.53	9.60	-3.91	1.95	-0.12	0.37	0.00	0.00	0.00	0.00	-0.50	-10.69	-8.23	9.05	1.47	9.82	-0.97	-0.51	0.00	0.00	0.00	0.00	-6.49	12.96	34.52
67.01	96.05	32.25	-0.29	-1.12	69.77	5.86	-14.64	-17.74	0.00	0.00	0.00	-13.28	37.29	7.97	4.19	-9.97	20.78	0.00	43.52	0.00	3.02	6.66	1.00	-0.35	-4.96	3.51	0.00	0.00	0.00	-3.93	-3.00	1.28	9.87	-3.90	2.14	-0.17	0.35	0.00	0.00	0.00	0.00	-0.84	-10.25	-8.26	9.31	1.54	9.77	-0.96	-0.53	0.00	0.00	0.00	0.00	-6.75	13.05	35.40
67.56	96.23	32.80	-0.02	-0.99	68.61	5.62	-13.73	-17.45	0.00	0.00	0.00	-12.55	37.15	6.99	4.18	-9.72	20.46	0.00	43.73	0.00	3.24	8.19	1.03	-0.48	-4.73	3.49	0.00	0.00	0.00	-4.15	-2.90	1.06	10.12	-3.98	2.34	-0.20	0.32	0.00	0.00	0.00	0.00	-1.18	-9.80	-8.31	9.56	1.62	9.77	-0.95	-0.55	0.00	0.00	0.00	0.00	-7.05	13.08	36.37
68.12	96.41	33.45	0.18	-0.84	67.46	5.36	-12.89	-17.11	0.00	0.00	0.00	-11.69	36.93	6.12	4.22	-9.60	20.07	0.00	44.07	0.00	3.45	9.84	1.06	-0.60	-4.49	3.48	0.00	0.00	0.00	-4.37	-2.81	0.91	10.40	-4.06	2.54	-0.23	0.30	0.00	0.00	0.00	0.00	-1.54	-9.39	-8.33	9.81	1.64	9.78	-0.96	-0.55	0.00	0.00	0.00	0.00	-7.37	13.11	37.23
68.71	100.45	34.21	0.35	-0.69	66.30	5.06	-12.10	-16.71	0.00	0.00	0.00	-10.71	36.72	5.35	4.31	-9.55	19.53	0.00	44.52	0.00	3.64	11.59	1.17	-0.72	-4.26	3.48	0.00	0.00	0.00	-4.61	-2.66	0.81	10.69	-4.31	2.89	-0.30	0.26	0.00	0.00	0.00	0.00	-1.90	-9.03	-8.36	10.05	1.69	9.84	-0.98	-0.56	0.00	0.00	0.00	0.00	-7.70	13.16	37.95
